<svg width="393" height="852" viewBox="0 0 393 852" xmlns="http://www.w3.org/2000/svg" font-family="'SF Pro Display', -apple-system, BlinkMacSystemFont, 'Segoe UI', sans-serif">
  <defs>
    <linearGradient id="hub-hero-grad" x1="0" y1="0" x2="393" y2="280" gradientUnits="userSpaceOnUse">
      <stop offset="0%" stop-color="#0F1117"/>
      <stop offset="100%" stop-color="#1A2340"/>
    </linearGradient>
    <filter id="card-sh" x="-5%" y="-10%" width="115%" height="130%">
      <feDropShadow dx="0" dy="2" stdDeviation="4" flood-color="rgba(0,0,0,0.07)"/>
    </filter>
    <linearGradient id="badge-grad" x1="0%" y1="0%" x2="100%" y2="100%">
      <stop offset="0%" stop-color="#7B5EA7"/>
      <stop offset="100%" stop-color="#1A4F8C"/>
    </linearGradient>
  </defs>

  <!-- Screen background -->
  <rect width="393" height="852" fill="#F5F6FA"/>

  <!-- ══ HERO HEADER ══ -->
  <rect x="0" y="0" width="393" height="220" fill="url(#hub-hero-grad)"/>

  <!-- Status bar placeholder -->
  <rect x="0" y="0" width="393" height="44" fill="transparent"/>
  <text x="20" y="28" font-size="13" font-weight="400" fill="rgba(255,255,255,0.6)">9:41</text>
  <text x="373" y="28" font-size="13" font-weight="400" fill="rgba(255,255,255,0.6)" text-anchor="end">●●●</text>

  <!-- App wordmark -->
  <text x="20" y="68" font-size="13" font-weight="800" fill="rgba(255,255,255,0.6)" letter-spacing="0.5">CFP</text>

  <!-- Notification bell -->
  <text x="365" y="68" font-size="20" text-anchor="middle">🔔</text>

  <!-- Hero greeting -->
  <text x="20" y="104" font-size="22" font-weight="900" fill="#FFFFFF">Good morning, Qiquan</text>
  <text x="20" y="126" font-size="13" font-weight="400" fill="rgba(255,255,255,0.7)">Here's your family finance overview</text>

  <!-- Founding Member Badge -->
  <rect x="20" y="138" width="150" height="24" rx="12" fill="url(#badge-grad)"/>
  <text x="95" y="154" font-size="10" font-weight="800" fill="#FFFFFF" text-anchor="middle" letter-spacing="0.7">✦ FOUNDING MEMBER</text>

  <!-- Summary row — 3 stat chips in hero -->
  <rect x="20" y="172" width="105" height="38" rx="10" fill="rgba(255,255,255,0.12)"/>
  <text x="72.5" y="188" font-size="9" font-weight="700" fill="rgba(255,255,255,0.6)" text-anchor="middle" letter-spacing="0.6">CHILDREN</text>
  <text x="72.5" y="203" font-size="14" font-weight="900" fill="#FFFFFF" text-anchor="middle">1</text>

  <rect x="133" y="172" width="127" height="38" rx="10" fill="rgba(255,255,255,0.12)"/>
  <text x="196.5" y="188" font-size="9" font-weight="700" fill="rgba(255,255,255,0.6)" text-anchor="middle" letter-spacing="0.6">SCHEMES ACTIVE</text>
  <text x="196.5" y="203" font-size="14" font-weight="900" fill="#FFFFFF" text-anchor="middle">7</text>

  <rect x="268" y="172" width="105" height="38" rx="10" fill="rgba(255,255,255,0.12)"/>
  <text x="320.5" y="188" font-size="9" font-weight="700" fill="rgba(255,255,255,0.6)" text-anchor="middle" letter-spacing="0.6">ACTIONS DUE</text>
  <!-- ACTIONS DUE value — amber (#ED7D31 = --amber token) -->
  <text x="320.5" y="203" font-size="14" font-weight="900" fill="#ED7D31" text-anchor="middle">3</text>

  <!-- ══ CONTEXT CARDS SECTION ══ -->
  <text x="20" y="244" font-size="11" font-weight="700" fill="#6B7280" letter-spacing="0.9">YOUR CONTEXTS</text>

  <!-- Child Raising card -->
  <rect x="16" y="252" width="361" height="88" rx="16" fill="#FFFFFF" filter="url(#card-sh)"/>
  <rect x="16" y="252" width="361" height="40" rx="16" fill="#2E75B6"/>
  <rect x="16" y="272" width="361" height="20" fill="#2E75B6"/>
  <text x="32" y="278" font-size="15" font-weight="800" fill="#FFFFFF">👶 Raezel · 8 months</text>
  <text x="32" y="294" font-size="11" font-weight="400" fill="rgba(255,255,255,0.8)">Infant care · Government-aided</text>
  <!-- Mini financial bar inside card -->
  <rect x="32" y="304" width="329" height="12" rx="6" fill="#E8EAF0"/>
  <rect x="32" y="304" width="148" height="12" rx="6" fill="#3A9E6F"/>
  <rect x="180" y="304" width="98" height="12" fill="#2E75B6"/>
  <rect x="278" y="304" width="83" height="12" rx="0" fill="#ED7D31"/>
  <!-- right cap fix -->
  <rect x="319" y="304" width="42" height="12" rx="6" fill="#ED7D31"/>
  <rect x="319" y="304" width="42" height="12" rx="0" fill="#ED7D31"/>
  <rect x="307" y="304" width="54" height="12" rx="6" fill="#ED7D31"/>
  <text x="32" y="330" font-size="11" font-weight="700" fill="#3A9E6F">S$4,500</text>
  <text x="196.5" y="330" font-size="11" font-weight="700" fill="#2E75B6" text-anchor="middle">S$3,000</text>
  <text x="361" y="330" font-size="11" font-weight="700" fill="#ED7D31" text-anchor="end">S$2,500</text>

  <!-- Family Planning card -->
  <rect x="16" y="352" width="361" height="68" rx="16" fill="#FFFFFF" filter="url(#card-sh)"/>
  <rect x="16" y="352" width="361" height="36" rx="16" fill="#1A8A8A"/>
  <rect x="16" y="370" width="361" height="18" fill="#1A8A8A"/>
  <text x="32" y="376" font-size="15" font-weight="800" fill="#FFFFFF">📋 Family Planning</text>
  <text x="32" y="393" font-size="11" font-weight="400" fill="#1A1D2E">Next review: PSEA deep-dive · Age 11</text>
  <text x="353" y="393" font-size="13" fill="#1A8A8A" text-anchor="end">›</text>

  <!-- Caregiver card -->
  <rect x="16" y="432" width="361" height="68" rx="16" fill="#FFFFFF" filter="url(#card-sh)"/>
  <rect x="16" y="432" width="361" height="36" rx="16" fill="#7B5EA7"/>
  <rect x="16" y="450" width="361" height="18" fill="#7B5EA7"/>
  <text x="32" y="456" font-size="15" font-weight="800" fill="#FFFFFF">🤝 Caregiver Support</text>
  <text x="32" y="473" font-size="11" font-weight="400" fill="#1A1D2E">No active caregiver profiles</text>
  <text x="353" y="473" font-size="13" fill="#7B5EA7" text-anchor="end">+</text>

  <!-- ══ ALERTS SECTION ══ -->
  <text x="20" y="520" font-size="11" font-weight="700" fill="#6B7280" letter-spacing="0.9">ACTIONS NEEDED</text>

  <!-- Alert 1 -->
  <rect x="16" y="528" width="361" height="52" rx="14" fill="#FEF3EA" stroke="rgba(237,125,49,0.3)" stroke-width="1"/>
  <text x="32" y="549" font-size="20">⚠️</text>
  <text x="62" y="545" font-size="13" font-weight="700" fill="#1A1D2E">CDA co-matching: 18 days left</text>
  <text x="62" y="561" font-size="12" fill="#1A1D2E">Top up before 31 Dec to unlock S$3,000 match.</text>
  <text x="374" y="557" font-size="14" fill="#ED7D31" text-anchor="end">›</text>

  <!-- Alert 2 -->
  <rect x="16" y="588" width="361" height="52" rx="14" fill="#FEF3EA" stroke="rgba(237,125,49,0.3)" stroke-width="1"/>
  <text x="32" y="609" font-size="20">📋</text>
  <text x="62" y="605" font-size="13" font-weight="700" fill="#1A1D2E">SCFA renewal due</text>
  <text x="62" y="621" font-size="12" fill="#1A1D2E">Renew before school term starts in Jan.</text>
  <text x="374" y="617" font-size="14" fill="#ED7D31" text-anchor="end">›</text>

  <!-- ══ NAV BAR ══ -->
  <rect x="0" y="769" width="393" height="83" fill="#FFFFFF"/>
  <line x1="0" y1="769" x2="393" y2="769" stroke="#E8EAF0" stroke-width="1"/>
  <text x="49" y="799" font-size="22" text-anchor="middle">🏠</text>
  <text x="49" y="814" font-size="10" font-weight="700" fill="#2E75B6" text-anchor="middle">Hub</text>
  <text x="131" y="799" font-size="22" text-anchor="middle">👶</text>
  <text x="131" y="814" font-size="10" font-weight="700" fill="#9CA3AF" text-anchor="middle">Child</text>
  <text x="197" y="799" font-size="22" text-anchor="middle">📋</text>
  <text x="197" y="814" font-size="10" font-weight="700" fill="#9CA3AF" text-anchor="middle">Plan</text>
  <text x="263" y="799" font-size="22" text-anchor="middle">🤝</text>
  <text x="263" y="814" font-size="10" font-weight="700" fill="#9CA3AF" text-anchor="middle">Care</text>
  <text x="345" y="799" font-size="22" text-anchor="middle">👤</text>
  <text x="345" y="814" font-size="10" font-weight="700" fill="#9CA3AF" text-anchor="middle">Profile</text>
  <!-- Safe area indicator -->
  <rect x="150" y="841" width="93" height="5" rx="2.5" fill="#1A1D2E" opacity="0.2"/>
</svg>
